HIERARCHY
ROOT Hips
{
  OFFSET 5.80788e-005 67.184 3.4734
  CHANNELS 6 Xposition Yposition Zposition Zrotation Xrotation Yrotation
  JOINT Chest
  {
    OFFSET 0 8.7983 -4.7612
    CHANNELS 3 Zrotation Xrotation Yrotation
    JOINT Chest2
    {
      OFFSET 0 8.0291 0.4195
      CHANNELS 3 Zrotation Xrotation Yrotation
      JOINT Chest3
      {
        OFFSET 0 9.9351 -2.2114
        CHANNELS 3 Zrotation Xrotation Yrotation
        JOINT Neck
        {
          OFFSET 0 22.3885 -0.4656
          CHANNELS 3 Zrotation Xrotation Yrotation
          JOINT Head
          {
            OFFSET -0.0001 12.643 3.4389
            CHANNELS 3 Zrotation Xrotation Yrotation
            End Site
            {
              OFFSET 0.0001 17.6655 0.5274
            }
          }
        }
        JOINT LeftCollar
        {
          OFFSET 2.2603 21.606 7.4023
          CHANNELS 3 Zrotation Xrotation Yrotation
          JOINT LeftShoulder
          {
            OFFSET 13.5163 -1.1332 -5.0146
            CHANNELS 3 Zrotation Xrotation Yrotation
            JOINT LeftElbow
            {
              OFFSET -0.0995 -28.05 -0.2431
              CHANNELS 3 Zrotation Xrotation Yrotation
              JOINT LeftWrist
              {
                OFFSET 0.0679 -23.3996 -0.1402
                CHANNELS 3 Zrotation Xrotation Yrotation
                JOINT LeftFinger1
                {
                  OFFSET 0.7932 -9.069 2.5189
                  CHANNELS 3 Zrotation Xrotation Yrotation
                  JOINT LeftFinger11
                  {
                    OFFSET -0.8272 -3.3923 0.5977
                    CHANNELS 3 Zrotation Xrotation Yrotation
                    JOINT LeftFinger12
                    {
                      OFFSET -0.5649 -2.3158 0.4082
                      CHANNELS 3 Zrotation Xrotation Yrotation
                      End Site
                      {
                        OFFSET -0.4919 -1.6479 0.2673
                      }
                    }
                  }
                }
                JOINT LeftFinger2
                {
                  OFFSET 0.9159 -9.2044 0.2193
                  CHANNELS 3 Zrotation Xrotation Yrotation
                  JOINT LeftFinger21
                  {
                    OFFSET 0.0117 -4.1944 -0.0248
                    CHANNELS 3 Zrotation Xrotation Yrotation
                    JOINT LeftFinger22
                    {
                      OFFSET 0.0071 -2.3249 -0.0142
                      CHANNELS 3 Zrotation Xrotation Yrotation
                      End Site
                      {
                        OFFSET -0.1475 -2.0882 0.0028
                      }
                    }
                  }
                }
                JOINT LeftFinger3
                {
                  OFFSET 0.6113 -8.7231 -2.0637
                  CHANNELS 3 Zrotation Xrotation Yrotation
                  JOINT LeftFinger31
                  {
                    OFFSET -0.1927 -3.8059 -0.2383
                    CHANNELS 3 Zrotation Xrotation Yrotation
                    JOINT LeftFinger32
                    {
                      OFFSET -0.1091 -2.1688 -0.1362
                      CHANNELS 3 Zrotation Xrotation Yrotation
                      End Site
                      {
                        OFFSET -0.2358 -1.9176 -0.0906
                      }
                    }
                  }
                }
                JOINT LeftFinger4
                {
                  OFFSET -0.6151 -8.0947 -3.5641
                  CHANNELS 3 Zrotation Xrotation Yrotation
                  JOINT LeftFinger41
                  {
                    OFFSET -0.4882 -2.341 -0.6462
                    CHANNELS 3 Zrotation Xrotation Yrotation
                    JOINT LeftFinger42
                    {
                      OFFSET -0.3575 -1.7167 -0.4742
                      CHANNELS 3 Zrotation Xrotation Yrotation
                      End Site
                      {
                        OFFSET -0.4187 -1.5237 -0.3496
                      }
                    }
                  }
                }
                JOINT LeftFinger0
                {
                  OFFSET -1.42 -1.8761 1.4223
                  CHANNELS 3 Zrotation Xrotation Yrotation
                  JOINT LeftFinger01
                  {
                    OFFSET -1.1471 -3.4929 2.6334
                    CHANNELS 3 Zrotation Xrotation Yrotation
                    JOINT LeftFinger02
                    {
                      OFFSET -0.823 -2.3 1.6571
                      CHANNELS 3 Zrotation Xrotation Yrotation
                      End Site
                      {
                        OFFSET -0.5822 -1.6914 1.1582
                      }
                    }
                  }
                }
              }
            }
          }
        }
        JOINT RightCollar
        {
          OFFSET -2.2603 21.606 7.4023
          CHANNELS 3 Zrotation Xrotation Yrotation
          JOINT RightShoulder
          {
            OFFSET -13.5187 -1.1334 -5.0155
            CHANNELS 3 Zrotation Xrotation Yrotation
            JOINT RightElbow
            {
              OFFSET 0.0994 -28.0499 -0.2431
              CHANNELS 3 Zrotation Xrotation Yrotation
              JOINT RightWrist
              {
                OFFSET -0.0679 -23.3996 -0.1402
                CHANNELS 3 Zrotation Xrotation Yrotation
                JOINT RightFinger1
                {
                  OFFSET -0.7932 -9.0691 2.5189
                  CHANNELS 3 Zrotation Xrotation Yrotation
                  JOINT RightFinger11
                  {
                    OFFSET 0.8272 -3.3923 0.5977
                    CHANNELS 3 Zrotation Xrotation Yrotation
                    JOINT RightFinger12
                    {
                      OFFSET 0.565 -2.3158 0.4082
                      CHANNELS 3 Zrotation Xrotation Yrotation
                      End Site
                      {
                        OFFSET 0.4919 -1.6479 0.2673
                      }
                    }
                  }
                }
                JOINT RightFinger2
                {
                  OFFSET -0.916 -9.2044 0.2193
                  CHANNELS 3 Zrotation Xrotation Yrotation
                  JOINT RightFinger21
                  {
                    OFFSET -0.0117 -4.1944 -0.0248
                    CHANNELS 3 Zrotation Xrotation Yrotation
                    JOINT RightFinger22
                    {
                      OFFSET -0.0071 -2.3249 -0.0142
                      CHANNELS 3 Zrotation Xrotation Yrotation
                      End Site
                      {
                        OFFSET 0.1475 -2.0882 0.0028
                      }
                    }
                  }
                }
                JOINT RightFinger3
                {
                  OFFSET -0.6113 -8.7231 -2.0637
                  CHANNELS 3 Zrotation Xrotation Yrotation
                  JOINT RightFinger31
                  {
                    OFFSET 0.1927 -3.8059 -0.2383
                    CHANNELS 3 Zrotation Xrotation Yrotation
                    JOINT RightFinger32
                    {
                      OFFSET 0.1091 -2.1688 -0.1362
                      CHANNELS 3 Zrotation Xrotation Yrotation
                      End Site
                      {
                        OFFSET 0.2358 -1.9176 -0.0906
                      }
                    }
                  }
                }
                JOINT RightFinger4
                {
                  OFFSET 0.6151 -8.0947 -3.564
                  CHANNELS 3 Zrotation Xrotation Yrotation
                  JOINT RightFinger41
                  {
                    OFFSET 0.4882 -2.341 -0.6462
                    CHANNELS 3 Zrotation Xrotation Yrotation
                    JOINT RightFinger42
                    {
                      OFFSET 0.3574 -1.7166 -0.4742
                      CHANNELS 3 Zrotation Xrotation Yrotation
                      End Site
                      {
                        OFFSET 0.4187 -1.5237 -0.3496
                      }
                    }
                  }
                }
                JOINT RightFinger0
                {
                  OFFSET 1.4199 -1.8761 1.4221
                  CHANNELS 3 Zrotation Xrotation Yrotation
                  JOINT RightFinger01
                  {
                    OFFSET 1.1472 -3.4929 2.6336
                    CHANNELS 3 Zrotation Xrotation Yrotation
                    JOINT RightFinger02
                    {
                      OFFSET 0.8229 -2.3 1.6571
                      CHANNELS 3 Zrotation Xrotation Yrotation
                      End Site
                      {
                        OFFSET 0.5822 -1.6914 1.1582
                      }
                    }
                  }
                }
              }
            }
          }
        }
      }
    }
  }
  JOINT RightHip
  {
    OFFSET -9.412 3.9771 -0.7758
    CHANNELS 3 Zrotation Xrotation Yrotation
    JOINT RightKnee
    {
      OFFSET -0.7531 -40.938 0
      CHANNELS 3 Zrotation Xrotation Yrotation
      JOINT RightAnkle
      {
        OFFSET 0 -40.1986 0
        CHANNELS 3 Zrotation Xrotation Yrotation
        JOINT RightToe
        {
          OFFSET 0 -4.4182 9.239
          CHANNELS 3 Zrotation Xrotation Yrotation
          End Site
          {
            OFFSET 0 0 6.1981
          }
        }
      }
    }
  }
  JOINT LeftHip
  {
    OFFSET 9.4119 3.9773 -0.7758
    CHANNELS 3 Zrotation Xrotation Yrotation
    JOINT LeftKnee
    {
      OFFSET 0.7532 -40.9383 0
      CHANNELS 3 Zrotation Xrotation Yrotation
      JOINT LeftAnkle
      {
        OFFSET 0 -40.1986 0
        CHANNELS 3 Zrotation Xrotation Yrotation
        JOINT LeftToe
        {
          OFFSET 0 -4.4182 9.239
          CHANNELS 3 Zrotation Xrotation Yrotation
          End Site
          {
            OFFSET 0 0 6.1981
          }
        }
      }
    }
  }
}
MOTION
Frames:	4
Frame Time:	0.0333333
-0.709836 62.0162 4.44749 -2.33096e-007 -5.07253 -1.12681e-006 -0.183602 2.50557 3.05662 -0.501539 4.99774 6.13004 -0.501541 4.99775 6.13006 20.8413 -27.6055 -9.44159 -0.00145418 7.71913 -10.0029 26.2496 11.1118 -87.3037 53.2171 -0.838301 32.2535 4.13552 -52.7183 70.7045 -22.6062 14.3697 -30.1735 9.54167e-015 -8.92454e-006 6.36111e-015 1.21907e-005 3.47191e-006 1.82193e-007 3.18055e-015 3.18055e-015 -3.18055e-015 9.54167e-015 -8.92454e-006 6.36111e-015 -0.0127663 0.00231408 8.61587e-005 -1.77757e-006 -2.06162e-006 -1.16349e-006 9.54167e-015 -8.92454e-006 6.36111e-015 -0.0160326 0.00300147 0.000855101 -3.18055e-015 4.77083e-015 -0 9.54167e-015 -8.92454e-006 6.36111e-015 -0.0126057 0.00313092 0.00283161 -9.54166e-015 3.18055e-015 -3.18055e-015 9.54167e-015 -8.92454e-006 6.36111e-015 1.21907e-005 3.47191e-006 1.82193e-007 3.18055e-015 3.18055e-015 -3.18055e-015 0.706602 -20.7305 18.2882 -15.7909 -14.7373 -11.7649 -9.17396 -41.1384 -3.56788 65.4329 26.8107 -0.303038 1.10612e-006 3.92389e-006 1.21421e-006 -3.91974e-006 1.68911e-006 -6.20873e-006 -2.73097e-007 -2.07006e-006 8.54632e-006 1.10612e-006 3.92389e-006 1.21421e-006 0.0129187 0.00228975 -8.89286e-005 1.29098e-006 1.01388e-006 -1.09991e-006 1.10612e-006 3.92389e-006 1.21421e-006 0.016321 0.00301784 -0.000867766 1.29098e-006 -5.05482e-006 -1.09989e-006 1.10612e-006 3.92389e-006 1.21421e-006 0.0145588 0.00368245 -0.00325675 1.79484e-006 -6.22588e-006 -2.45149e-006 1.10612e-006 3.92389e-006 1.21421e-006 -3.91974e-006 1.68911e-006 -6.20873e-006 -2.73097e-007 -2.07006e-006 8.54632e-006 -17.7103 -13.311 -11.6341 0.576079 31.5934 0.212162 20.6972 -9.55739 -2.82315 -1.2921e-015 -1.12479e-007 3.18055e-015 7.76785 -18.5465 13.9029 2.91625 46.8798 -2.18444 -12.4125 -21.8825 1.63166 -8.46136e-007 6.59936e-008 -1.03419e-008 
-0.709544 62.179 4.14028 -2.56922e-007 -4.35859 8.31318e-008 -0.202395 2.35598 3.05753 -0.531066 4.69777 6.13114 -0.531067 4.69777 6.13115 20.8954 -27.7251 -9.2914 -0.00144924 7.39169 -10.0029 26.2496 11.1118 -87.3038 53.217 -0.838229 32.2535 4.13553 -52.7184 70.7045 -22.6285 14.367 -30.1712 3.96094e-006 -6.36903e-006 2.70824e-006 -0 0 3.18055e-015 9.53043e-006 2.09362e-005 6.95869e-006 3.96094e-006 -6.36903e-006 2.70824e-006 -0.0128404 0.00234651 8.98058e-005 3.18055e-015 1.59028e-015 3.18055e-015 3.96094e-006 -6.36903e-006 2.70824e-006 -0.0160173 0.00301314 0.000864195 9.66711e-007 -1.32763e-006 -1.40719e-006 3.96094e-006 -6.36903e-006 2.70824e-006 -0.0125255 0.00310634 0.00281709 -3.18055e-015 1.27222e-014 -0 3.96094e-006 -6.36903e-006 2.70824e-006 -0 0 3.18055e-015 9.53043e-006 2.09362e-005 6.95869e-006 0.441987 -20.5119 17.8618 -15.382 -14.7915 -11.6067 -8.9712 -41.2516 -3.4241 65.1534 26.8043 -0.0358348 7.95139e-016 -1.15295e-014 3.18055e-015 -7.95139e-016 -5.40774e-006 -0 -2.39711e-006 7.1977e-006 -1.13917e-007 7.95139e-016 -1.15295e-014 3.18055e-015 0.0129669 0.00229495 -8.74476e-005 9.71465e-007 -1.06249e-005 -2.06246e-006 7.95139e-016 -1.15295e-014 3.18055e-015 0.0163132 0.00301272 -0.000868979 -7.95139e-016 7.7526e-015 -0 7.95139e-016 -1.15295e-014 3.18055e-015 0.0145172 0.00363039 -0.00324589 -3.8237e-006 -2.14386e-005 1.28081e-005 7.95139e-016 -1.15295e-014 3.18055e-015 -7.95139e-016 -5.40774e-006 -0 -2.39711e-006 7.1977e-006 -1.13917e-007 -17.6543 -13.7445 -11.6189 0.767148 30.715 0.118211 20.5416 -9.05772 -3.24367 1.09332e-015 1.88835e-011 -0 7.74901 -19.163 13.9203 2.72988 46.2977 -2.04866 -12.2729 -21.4196 1.81554 -1.98785e-016 5.96354e-016 3.18055e-015 
-0.709229 62.3428 3.83246 4.65492e-009 -3.64481 7.3224e-008 -0.221163 2.20642 3.0583 -0.560537 4.39787 6.13192 -0.560537 4.39786 6.13191 20.9502 -27.8445 -9.14091 -0.00145231 7.06403 -10.0029 26.2496 11.1117 -87.3038 53.217 -0.838175 32.2536 4.13553 -52.7185 70.7046 -22.6508 14.3643 -30.1689 -3.9632e-006 2.89307e-006 -2.70487e-006 5.82254e-022 5.24448e-006 -6.36111e-015 -3.39975e-006 -1.1091e-006 -4.49922e-006 -3.9632e-006 2.89307e-006 -2.70487e-006 -0.0128095 0.00232291 8.16703e-005 -3.96297e-006 2.89405e-006 -2.70503e-006 -3.9632e-006 2.89307e-006 -2.70487e-006 -0.0160264 0.00299416 0.000853664 -3.66024e-006 1.03482e-005 -1.06558e-005 -3.9632e-006 2.89307e-006 -2.70487e-006 -0.0125842 0.00310075 0.00281818 -5.33155e-006 4.05489e-006 -1.68326e-006 -3.9632e-006 2.89307e-006 -2.70487e-006 5.82254e-022 5.24448e-006 -6.36111e-015 -3.39975e-006 -1.1091e-006 -4.49922e-006 0.179531 -20.2914 17.4371 -14.9729 -14.8447 -11.448 -8.76772 -41.3644 -3.27953 64.874 26.7968 0.231286 3.18055e-015 4.96962e-015 -0 -8.33764e-007 1.48972e-005 5.3395e-006 1.2683e-005 -7.27162e-006 -8.04896e-006 3.18055e-015 4.96962e-015 -0 0.0129767 0.00233011 -7.17683e-005 1.10654e-006 3.92102e-006 1.21385e-006 3.18055e-015 4.96962e-015 -0 0.0162885 0.00301641 -0.000875836 1.35447e-007 1.52039e-005 3.2767e-006 3.18055e-015 4.96962e-015 -0 0.0145968 0.00367189 -0.00326835 -6.51411e-007 1.05562e-005 3.02565e-006 3.18055e-015 4.96962e-015 -0 -8.33764e-007 1.48972e-005 5.3395e-006 1.2683e-005 -7.27162e-006 -8.04896e-006 -17.5956 -14.1772 -11.6035 0.949307 29.8342 0.0306739 20.3918 -8.556 -3.66286 1.59028e-015 -1.89921e-011 -6.36111e-015 7.73042 -19.7791 13.9377 2.54732 45.7149 -1.91685 -12.1349 -20.956 1.99779 1.09332e-015 4.32547e-011 -0 
-0.708889 62.5078 3.52405 2.58612e-009 -2.93125 5.05718e-008 -0.239907 2.05692 3.05895 -0.589956 4.09807 6.1324 -0.589957 4.09808 6.13242 21.0053 -27.9638 -8.99016 -0.00145582 6.73614 -10.0029 26.2497 11.1116 -87.3038 53.217 -0.838055 32.2536 4.13551 -52.7186 70.7045 -22.6731 14.3615 -30.1666 -1.27222e-014 1.59028e-014 -3.18055e-015 2.18367e-006 -3.24348e-006 1.54431e-006 1.76556e-031 -3.18055e-015 3.18055e-015 -1.27222e-014 1.59028e-014 -3.18055e-015 -0.0128383 0.00232723 9.08869e-005 7.06225e-031 -6.36111e-015 6.36111e-015 -1.27222e-014 1.59028e-014 -3.18055e-015 -0.0160859 0.00298529 0.000858378 0 0 -0 -1.27222e-014 1.59028e-014 -3.18055e-015 -0.0126155 0.00310675 0.00282848 -2.18405e-006 3.59726e-006 -1.54432e-006 -1.27222e-014 1.59028e-014 -3.18055e-015 2.18367e-006 -3.24348e-006 1.54431e-006 1.76556e-031 -3.18055e-015 3.18055e-015 -0.0807939 -20.0692 17.0141 -14.5635 -14.8972 -11.2889 -8.56353 -41.4768 -3.13422 64.5945 26.7882 0.498343 7.95139e-016 0 -3.18055e-015 1.10675e-006 3.26324e-006 1.21349e-006 1.29037e-006 -3.13469e-007 -1.10068e-006 7.95139e-016 0 -3.18055e-015 0.0129586 0.00230969 -8.03575e-005 4.56913e-007 9.18295e-006 4.23941e-006 7.95139e-016 0 -3.18055e-015 0.0163678 0.00302418 -0.00085693 1.29037e-006 1.01371e-006 -1.10061e-006 7.95139e-016 0 -3.18055e-015 0.0146113 0.00369711 -0.00326851 -2.01487e-006 -2.24303e-005 5.40525e-006 7.95139e-016 0 -3.18055e-015 1.10675e-006 3.26324e-006 1.21349e-006 1.29037e-006 -3.13469e-007 -1.10068e-006 -17.5341 -14.6097 -11.5877 1.12258 28.9518 -0.0507149 20.2479 -8.05257 -4.08064 -1.88845e-015 -9.93923e-016 -0 7.71234 -20.3946 13.9553 2.36815 45.1312 -1.78889 -11.9986 -20.4919 2.17841 -5.40546e-008 1.8539e-008 -1.61568e-006 
